<svg width="100" height="100" viewBox="0 0 100 100" fill="none" xmlns="http://www.w3.org/2000/svg">
<rect width="100" height="100" fill="#008F91"/>
<path d="M55.2119 37.3168C50.9071 37.7889 43.9834 40.7046 36.7444 45.3811C30.8567 49.1836 25.9728 53.3689 23 56.9099V23H76.9996V46.185C76.5942 45.9171 76.1888 45.6491 75.777 45.3811C68.538 40.7046 61.6079 37.7825 57.3096 37.3168C56.9878 37.2721 56.6404 37.2466 56.2607 37.253C55.8811 37.2466 55.5336 37.2721 55.2119 37.3168Z" fill="white"/>
<path d="M38.3599 48.494C45.2836 43.1858 52.0078 39.6705 56.2611 38.8474C60.5144 39.6705 67.2451 43.1858 74.1687 48.494C75.1404 49.2405 76.0927 49.9997 77 50.7653V77H23.0004V65.7265C24.2487 61.5922 30.2201 54.7401 38.3599 48.494Z" fill="white"/>
</svg>
